# 3ds Max Wavefront OBJ Exporter v0.97b - (c)2007 guruware
# File Created: 30.04.2014 13:53:48

mtllib 3DPointer.mtl

#
# object Pyramid001
#

v  0.0000 20.0000 -0.0000
v  -5.0000 0.0000 5.0000
v  5.0000 0.0000 5.0000
v  5.0000 0.0000 -5.0000
v  -5.0000 0.0000 -5.0000
v  -1.3412 1.7352 1.3412
v  0.0000 1.7352 -0.0000
v  1.3412 1.7352 1.3412
v  1.3412 1.7352 -1.3412
v  -1.3412 1.7352 -1.3412
# 10 vertices

vn 0.0000 0.2425 0.9701
vn 0.9701 0.2425 -0.0000
vn 0.0000 0.2425 -0.9701
vn -0.9701 0.2425 -0.0000
vn 0.0000 -1.0000 -0.0000
vn 0.0000 -0.9035 -0.4285
vn 0.4285 -0.9035 -0.0000
vn 0.0000 -0.9035 0.4285
vn -0.4285 -0.9035 -0.0000
# 9 vertex normals

vt 0.5000 1.0000 0.0000
vt 0.0000 0.0000 0.0000
vt 1.0000 0.0000 0.0000
vt 0.0000 1.0000 0.0000
vt 0.5000 0.5000 0.0000
vt 1.0000 1.0000 0.0000
# 6 texture coords

g Pyramid001
usemtl wire_138008110
s 4
f 1/1/1 2/2/1 3/3/1 
s 2
f 1/1/2 3/2/2 4/3/2 
s 16
f 1/1/3 4/2/3 5/3/3 
s 32
f 1/1/4 5/2/4 2/3/4 
s 8
f 6/4/5 7/5/5 8/6/5 
f 8/6/5 7/5/5 9/3/5 
f 9/3/5 7/5/5 10/2/5 
f 10/2/5 7/5/5 6/4/5 
s off
f 3/3/6 2/2/6 6/4/6 8/6/6 
f 2/3/7 5/2/7 10/2/7 6/4/7 
f 5/3/8 4/2/8 9/3/8 10/2/8 
f 4/3/9 3/2/9 8/6/9 9/3/9 
# 4 polygons - 8 triangles

