# 3ds Max Wavefront OBJ Exporter v0.97b - (c)2007 guruware
# File Created: 29.04.2014 01:42:43

mtllib Mines.mtl

#
# object Cone001
#

v  -0.0059 -1.1445 -0.3321
v  0.8033 -0.8093 -0.3427
v  -0.0059 -0.0000 1.5165
v  1.1385 -0.0000 -0.3470
v  0.8033 0.8093 -0.3427
v  -0.0059 1.1445 -0.3321
v  -0.8151 0.8093 -0.3215
v  -1.1502 0.0000 -0.3171
v  -0.8151 -0.8093 -0.3215
v  -0.0059 0.9638 -0.3321
v  0.6756 0.6815 -0.3410
v  -0.0059 -0.9638 -0.3321
v  -0.6873 -0.6815 -0.3232
v  0.9367 -1.0826 -1.1885
v  0.0743 -1.4398 -1.1773
v  0.0743 -1.3884 -1.1773
v  0.9003 -1.0462 -1.1880
v  -0.1081 -1.4398 -1.1749
v  -0.9704 -1.0826 -1.1636
v  -0.9341 -1.0462 -1.1641
v  -0.1081 -1.3884 -1.1749
v  -1.0994 -0.9536 -1.1619
v  -1.4566 -0.0912 -1.1572
v  -1.4052 -0.0912 -1.1579
v  -1.0630 -0.9173 -1.1624
v  -1.4566 0.0912 -1.1572
v  -1.0994 0.9536 -1.1619
v  -1.0630 0.9173 -1.1624
v  -1.4052 0.0912 -1.1579
v  -0.9704 1.0826 -1.1636
v  -0.1081 1.4398 -1.1749
v  -0.1081 1.3884 -1.1749
v  -0.9341 1.0462 -1.1641
v  0.0743 1.4398 -1.1773
v  0.9367 1.0826 -1.1885
v  0.9003 1.0462 -1.1880
v  0.0743 1.3884 -1.1773
v  1.0656 0.9536 -1.1902
v  1.4228 0.0912 -1.1949
v  1.3714 0.0912 -1.1942
v  1.0293 0.9173 -1.1897
v  1.4228 -0.0912 -1.1949
v  1.0656 -0.9536 -1.1902
v  1.0293 -0.9173 -1.1897
v  1.3714 -0.0912 -1.1942
v  0.0368 -1.0807 -0.3326
v  0.7281 -0.7943 -0.3417
v  0.0368 -0.9923 -0.3326
v  0.6756 -0.6815 -0.3410
v  0.6656 -0.7318 -0.3409
v  -0.7398 -0.7943 -0.3225
v  -0.0485 -1.0807 -0.3315
v  -0.6773 -0.7318 -0.3233
v  -0.0485 -0.9923 -0.3315
v  -1.0864 -0.0426 -0.3180
v  -0.8001 -0.7340 -0.3217
v  -0.9696 0.0000 -0.3195
v  -0.9981 -0.0426 -0.3191
v  -0.7376 -0.6715 -0.3225
v  -0.8001 0.7340 -0.3217
v  -1.0864 0.0426 -0.3180
v  -0.6873 0.6815 -0.3232
v  -0.7376 0.6715 -0.3225
v  -0.9981 0.0426 -0.3191
v  -0.0485 1.0807 -0.3315
v  -0.7398 0.7943 -0.3225
v  -0.0485 0.9923 -0.3315
v  -0.6773 0.7318 -0.3233
v  0.7281 0.7943 -0.3417
v  0.0368 1.0807 -0.3326
v  0.6656 0.7318 -0.3409
v  0.0368 0.9923 -0.3326
v  1.0747 0.0426 -0.3462
v  0.7884 0.7340 -0.3425
v  0.9579 -0.0000 -0.3447
v  0.9864 0.0426 -0.3451
v  0.7259 0.6715 -0.3417
v  0.7884 -0.7340 -0.3425
v  1.0747 -0.0426 -0.3462
v  0.7259 -0.6715 -0.3417
v  0.9864 -0.0426 -0.3451
v  0.0437 -1.4884 -1.0340
v  0.9958 -1.0940 -1.0464
v  0.0437 -1.3667 -1.0340
v  0.9098 -1.0079 -1.0453
v  -1.0259 -1.0940 -1.0200
v  -0.0738 -1.4884 -1.0325
v  -0.9398 -1.0079 -1.0211
v  -0.0738 -1.3667 -1.0325
v  -1.5033 -0.0587 -1.0138
v  -1.1089 -1.0109 -1.0189
v  -1.3816 -0.0587 -1.0154
v  -1.0229 -0.9249 -1.0201
v  -1.1089 1.0109 -1.0189
v  -1.5033 0.0587 -1.0138
v  -1.0229 0.9249 -1.0201
v  -1.3816 0.0587 -1.0154
v  -0.0738 1.4884 -1.0325
v  -1.0259 1.0940 -1.0200
v  -0.0738 1.3667 -1.0325
v  -0.9398 1.0079 -1.0211
v  0.9958 1.0940 -1.0464
v  0.0437 1.4884 -1.0340
v  0.9098 1.0079 -1.0453
v  0.0437 1.3667 -1.0340
v  1.4733 0.0587 -1.0527
v  1.0789 1.0109 -1.0475
v  1.3516 0.0587 -1.0511
v  0.9928 0.9249 -1.0464
v  1.0789 -1.0109 -1.0475
v  1.4733 -0.0587 -1.0527
v  0.9928 -0.9249 -1.0464
v  1.3516 -0.0587 -1.0511
# 113 vertices

vn 0.0088 -0.8502 0.5264
vn 0.6066 -0.5977 0.5242
vn 0.3380 -0.8002 0.4954
vn -0.3264 -0.8037 0.4976
vn 0.8521 -0.0000 0.5233
vn 0.8043 -0.3304 0.4939
vn 0.6066 0.5977 0.5242
vn 0.8043 0.3304 0.4939
vn 0.0088 0.8502 0.5264
vn 0.3380 0.8002 0.4954
vn -0.5958 0.6046 0.5286
vn -0.3264 0.8037 0.4976
vn -0.8483 0.0000 0.5295
vn -0.7996 0.3339 0.4991
vn -0.5958 -0.6047 0.5286
vn -0.7996 -0.3339 0.4991
vn -0.0131 0.0000 -0.9999
vn -0.0000 -1.0000 -0.0000
vn -0.0131 -0.0000 -0.9999
vn 0.3421 -0.8109 0.4748
vn -1.0000 0.0000 -0.0099
vn -0.3478 0.8256 -0.4442
vn 0.7066 0.7069 -0.0322
vn -0.3296 -0.8109 0.4836
vn -0.7072 0.7069 -0.0137
vn 0.3361 0.8256 -0.4531
vn 0.9994 -0.0000 -0.0360
vn -0.8045 -0.3359 0.4898
vn -0.0003 0.9997 -0.0229
vn 0.8197 0.3420 -0.4595
vn 0.7066 -0.7069 -0.0322
vn -0.8045 0.3359 0.4898
vn 0.8197 -0.3420 -0.4595
vn -0.0003 -0.9997 -0.0229
vn -0.3296 0.8109 0.4836
vn 0.9994 0.0000 -0.0360
vn 0.3361 -0.8256 -0.4531
vn -0.7072 -0.7069 -0.0137
vn 0.3421 0.8109 0.4748
vn -0.3478 -0.8256 -0.4442
vn -1.0000 -0.0000 -0.0099
vn 0.8171 0.3359 0.4686
vn -0.8314 -0.3420 -0.4379
vn 0.8171 -0.3359 0.4686
vn -0.8314 0.3420 -0.4379
vn 0.3702 -0.9009 -0.2265
vn -0.9779 0.0000 -0.2089
vn -0.9779 -0.0000 -0.2089
vn -0.3760 0.9009 -0.2167
vn 0.6866 0.6895 -0.2306
vn -0.3760 -0.9009 -0.2167
vn -0.6924 0.6895 -0.2126
vn 0.3702 0.9009 -0.2265
vn 0.9722 -0.0000 -0.2343
vn -0.9037 -0.3732 -0.2098
vn -0.0029 0.9751 -0.2216
vn 0.8979 0.3732 -0.2334
vn 0.6866 -0.6895 -0.2306
vn -0.9037 0.3732 -0.2098
vn 0.8979 -0.3732 -0.2334
vn -0.0029 -0.9751 -0.2216
vn 0.9722 0.0000 -0.2343
vn -0.6924 -0.6895 -0.2126
# 63 vertex normals

vt 0.3525 0.1306 0.0000
vt 0.3510 0.0200 0.0000
vt 0.6052 0.1306 0.0000
vt 0.0206 0.5712 0.0000
vt 0.0200 0.4584 0.0000
vt 0.2748 0.4584 0.0000
vt 0.2748 0.4605 0.0000
vt 0.0206 0.3478 0.0000
vt 0.0200 0.8468 0.0000
vt 0.0214 0.7362 0.0000
vt 0.2742 0.7362 0.0000
vt 0.0229 0.6255 0.0000
vt 0.3291 0.5712 0.0000
vt 0.3297 0.4605 0.0000
vt 0.5804 0.4605 0.0000
vt 0.3291 0.3499 0.0000
vt 0.3539 0.2413 0.0000
vt 0.2144 0.2874 0.0000
vt 0.1135 0.2864 0.0000
vt 0.1159 0.0429 0.0000
vt 0.2168 0.0439 0.0000
vt 0.5000 1.0000 0.0000
vt 0.9762 0.7729 0.0000
vt 0.8486 0.7691 0.0000
vt 0.8515 0.7627 0.0000
vt 0.9737 0.7663 0.0000
vt 0.8350 0.6255 0.0000
vt 0.9626 0.6268 0.0000
vt 0.9599 0.6332 0.0000
vt 0.8376 0.6320 0.0000
vt 0.9544 0.3122 0.0000
vt 0.8268 0.3085 0.0000
vt 0.8296 0.3021 0.0000
vt 0.9519 0.3057 0.0000
vt 0.9528 0.9721 0.0000
vt 0.8251 0.9709 0.0000
vt 0.8279 0.9644 0.0000
vt 0.9502 0.9656 0.0000
vt 0.6636 0.8379 0.0000
vt 0.7912 0.8416 0.0000
vt 0.7883 0.8481 0.0000
vt 0.6661 0.8445 0.0000
vt 0.9732 0.8456 0.0000
vt 0.8455 0.8444 0.0000
vt 0.8483 0.8379 0.0000
vt 0.9705 0.8391 0.0000
vt 0.0200 0.9634 0.0000
vt 0.1476 0.9671 0.0000
vt 0.1447 0.9735 0.0000
vt 0.0225 0.9699 0.0000
vt 0.8251 0.9024 0.0000
vt 0.9528 0.9036 0.0000
vt 0.9500 0.9101 0.0000
vt 0.8278 0.9089 0.0000
vt 0.8750 0.0000 1.0000
vt 0.7500 0.0000 1.0000
vt 0.1067 0.0200 0.0000
vt 0.1090 0.0415 0.0000
vt 0.1045 0.0303 0.0000
vt 0.0439 0.1135 0.0000
vt 0.0426 0.1066 0.0000
vt 0.0212 0.1039 0.0000
vt 0.0315 0.1019 0.0000
vt 0.6250 0.0000 1.0000
vt 0.2264 0.0212 0.0000
vt 0.2129 0.0380 0.0000
vt 0.2177 0.0269 0.0000
vt 0.1199 0.0371 0.0000
vt 0.1154 0.0259 0.0000
vt 0.5000 0.0000 1.0000
vt 0.3103 0.1067 0.0000
vt 0.2874 0.1159 0.0000
vt 0.2888 0.1091 0.0000
vt 0.3000 0.1046 0.0000
vt 0.2237 0.0426 0.0000
vt 0.2284 0.0315 0.0000
vt 0.3750 0.0000 1.0000
vt 0.3091 0.2265 0.0000
vt 0.2864 0.2168 0.0000
vt 0.2923 0.2130 0.0000
vt 0.3034 0.2177 0.0000
vt 0.2932 0.1199 0.0000
vt 0.3044 0.1154 0.0000
vt 0.2500 0.0000 1.0000
vt 0.5000 0.0000 -0.2500
vt 0.2877 0.2237 0.0000
vt 0.2213 0.2888 0.0000
vt 0.2988 0.2284 0.0000
vt 0.1250 0.0000 1.0000
vt 0.1039 0.3091 0.0000
vt 0.1174 0.2923 0.0000
vt 0.1126 0.3034 0.0000
vt 0.2104 0.2932 0.0000
vt 0.0000 0.0000 1.0000
vt 0.0000 0.5000 -0.2500
vt 0.0429 0.2144 0.0000
vt 0.1066 0.2877 0.0000
vt 0.0415 0.2213 0.0000
vt 0.1019 0.2988 0.0000
vt 1.0000 0.0000 1.0000
vt 0.0380 0.1174 0.0000
vt 0.0269 0.1126 0.0000
vt 0.0371 0.2104 0.0000
vt 0.0200 0.2236 0.0000
vt 0.0259 0.2150 0.0000
vt 0.6690 0.7010 0.0000
vt 0.6636 0.6901 0.0000
vt 0.7723 0.6935 0.0000
vt 0.7797 0.7084 0.0000
vt 0.3291 0.7828 0.0000
vt 0.4151 0.7839 0.0000
vt 0.4485 0.8803 0.0000
vt 0.3301 0.8787 0.0000
vt 0.1507 0.9100 0.0000
vt 0.1448 0.9206 0.0000
vt 0.0339 0.9226 0.0000
vt 0.0420 0.9081 0.0000
vt 0.7385 0.5114 0.0000
vt 0.7416 0.5194 0.0000
vt 0.6390 0.5200 0.0000
vt 0.6348 0.5090 0.0000
vt 0.6919 0.1794 0.0000
vt 0.7778 0.1773 0.0000
vt 0.7780 0.2732 0.0000
vt 0.6596 0.2761 0.0000
vt 0.4597 0.9481 0.0000
vt 0.4539 0.9587 0.0000
vt 0.3430 0.9619 0.0000
vt 0.3510 0.9472 0.0000
vt 0.8538 0.6993 0.0000
vt 0.8486 0.6884 0.0000
vt 0.9572 0.6932 0.0000
vt 0.9644 0.7082 0.0000
vt 0.4910 0.5658 0.0000
vt 0.5770 0.5663 0.0000
vt 0.6116 0.6617 0.0000
vt 0.4932 0.6611 0.0000
vt 0.9634 0.1842 0.0000
vt 0.9578 0.1949 0.0000
vt 0.8469 0.1990 0.0000
vt 0.8547 0.1843 0.0000
vt 0.6689 0.7751 0.0000
vt 0.6636 0.7642 0.0000
vt 0.7723 0.7686 0.0000
vt 0.7795 0.7836 0.0000
vt 0.5384 0.7245 0.0000
vt 0.6244 0.7240 0.0000
vt 0.6222 0.8192 0.0000
vt 0.5037 0.8199 0.0000
vt 0.7943 0.6315 0.0000
vt 0.7886 0.6422 0.0000
vt 0.6778 0.6467 0.0000
vt 0.6856 0.6320 0.0000
vt 0.5231 0.9729 0.0000
vt 0.5254 0.8869 0.0000
vt 0.6221 0.8548 0.0000
vt 0.6190 0.9732 0.0000
vt 0.6636 0.9102 0.0000
vt 0.6670 0.9024 0.0000
vt 0.7708 0.9041 0.0000
vt 0.7662 0.9149 0.0000
vt 0.7995 0.5206 0.0000
vt 0.7940 0.5098 0.0000
vt 0.9027 0.5121 0.0000
vt 0.9102 0.5270 0.0000
vt 0.8661 0.0211 0.0000
vt 0.9521 0.0200 0.0000
vt 0.9511 0.1159 0.0000
vt 0.8327 0.1174 0.0000
vt 0.3291 0.6260 0.0000
vt 0.4151 0.6255 0.0000
vt 0.4498 0.7219 0.0000
vt 0.3313 0.7225 0.0000
vt 0.4237 0.6256 0.0000
vt 0.4615 0.7220 0.0000
vt 0.6974 0.0201 0.0000
vt 0.7060 0.0200 0.0000
vt 0.6713 0.1164 0.0000
vt 0.6596 0.1165 0.0000
vt 0.7920 0.0205 0.0000
vt 0.7898 0.1170 0.0000
vt 0.8327 0.2608 0.0000
vt 0.8378 0.2499 0.0000
vt 0.9482 0.2397 0.0000
vt 0.9412 0.2548 0.0000
vt 0.7912 0.6875 0.0000
vt 0.7943 0.6938 0.0000
vt 0.4472 0.8998 0.0000
vt 0.3343 0.8983 0.0000
vt 0.0200 0.9073 0.0000
vt 0.0234 0.9011 0.0000
vt 0.9755 0.3499 0.0000
vt 0.9754 0.3665 0.0000
vt 0.9554 0.3634 0.0000
vt 0.9554 0.3563 0.0000
vt 0.7740 0.2929 0.0000
vt 0.6611 0.2956 0.0000
vt 0.3291 0.9467 0.0000
vt 0.3325 0.9405 0.0000
vt 0.9761 0.6875 0.0000
vt 0.9791 0.6938 0.0000
vt 0.6106 0.6812 0.0000
vt 0.4976 0.6805 0.0000
vt 0.8327 0.1839 0.0000
vt 0.8360 0.1777 0.0000
vt 0.7912 0.7627 0.0000
vt 0.7943 0.7691 0.0000
vt 0.6355 0.8403 0.0000
vt 0.5225 0.8409 0.0000
vt 0.6636 0.6317 0.0000
vt 0.6669 0.6255 0.0000
vt 0.6317 0.8600 0.0000
vt 0.6287 0.9730 0.0000
vt 0.7424 0.5698 0.0000
vt 0.7425 0.5864 0.0000
vt 0.7224 0.5800 0.0000
vt 0.7224 0.5730 0.0000
vt 0.9215 0.5059 0.0000
vt 0.9247 0.5122 0.0000
vt 0.9469 0.1355 0.0000
vt 0.8340 0.1370 0.0000
vt 0.4487 0.7415 0.0000
vt 0.3358 0.7421 0.0000
vt 0.2084 0.9634 0.0000
vt 0.2083 0.9800 0.0000
vt 0.1883 0.9732 0.0000
vt 0.1884 0.9661 0.0000
vt 0.7835 0.5758 0.0000
vt 0.7837 0.5924 0.0000
vt 0.7636 0.5897 0.0000
vt 0.7636 0.5826 0.0000
vt 0.7853 0.1366 0.0000
vt 0.6724 0.1360 0.0000
vt 0.9632 0.2540 0.0000
vt 0.9602 0.2604 0.0000
# 235 texture coords

g Cone001
usemtl wire_138008110
f 1/1/1 2/2/2 3/3/3 
f 3/3/3 3/3/4 1/1/1 
f 2/4/2 4/5/5 3/6/6 
f 3/6/6 3/7/3 2/4/2 
f 4/5/5 5/8/7 3/6/8 
f 3/6/8 3/6/6 4/5/5 
f 5/9/7 6/10/9 3/11/10 
f 3/11/10 3/11/8 5/9/7 
f 6/10/9 7/12/11 3/11/12 
f 3/11/12 3/11/10 6/10/9 
f 7/13/11 8/14/13 3/15/14 
f 3/15/14 3/15/12 7/13/11 
f 8/14/13 9/16/15 3/15/16 
f 3/15/16 3/15/14 8/14/13 
f 9/17/15 1/1/1 3/3/4 
f 3/3/4 3/3/16 9/17/15 
f 10/18/17 11/19/17 12/20/17 
f 12/20/17 13/21/17 10/18/17 
f 3/22/18 3/22/18 3/22/18 
f 3/22/18 3/22/18 3/22/18 
f 3/22/18 3/22/18 3/22/18 
f 3/22/18 3/22/18 3/22/18 
f 3/22/18 3/22/18 3/22/18 
f 3/22/18 3/22/18 3/22/18 
f 14/23/19 15/24/19 16/25/19 
f 16/25/17 17/26/17 14/23/17 
f 18/27/17 19/28/17 20/29/17 
f 20/29/19 21/30/19 18/27/19 
f 22/31/17 23/32/17 24/33/17 
f 24/33/17 25/34/17 22/31/17 
f 26/35/17 27/36/17 28/37/17 
f 28/37/19 29/38/19 26/35/19 
f 30/39/19 31/40/19 32/41/19 
f 32/41/19 33/42/19 30/39/19 
f 34/43/19 35/44/19 36/45/19 
f 36/45/19 37/46/19 34/43/19 
f 38/47/17 39/48/17 40/49/17 
f 40/49/17 41/50/17 38/47/17 
f 42/51/17 43/52/17 44/53/17 
f 44/53/19 45/54/19 42/51/19 
f 2/55/17 1/56/17 46/56/17 
f 46/56/19 47/55/19 2/55/19 
f 1/57/17 12/20/17 48/58/17 
f 48/58/17 46/59/17 1/57/17 
f 12/20/19 49/60/19 50/61/19 
f 50/61/19 48/58/19 12/20/19 
f 49/60/17 2/62/17 47/63/17 
f 47/63/19 50/61/19 49/60/19 
f 1/56/17 9/64/17 51/64/17 
f 51/64/19 52/56/19 1/56/19 
f 9/65/17 13/21/17 53/66/17 
f 53/66/19 51/67/19 9/65/19 
f 13/21/17 12/20/17 54/68/17 
f 54/68/17 53/66/17 13/21/17 
f 12/20/17 1/57/17 52/69/17 
f 52/69/17 54/68/17 12/20/17 
f 9/64/19 8/70/19 55/70/19 
f 55/70/17 56/64/17 9/64/17 
f 8/71/17 57/72/17 58/73/17 
f 58/73/17 55/74/17 8/71/17 
f 57/72/19 13/21/19 59/75/19 
f 59/75/17 58/73/17 57/72/17 
f 13/21/17 9/65/17 56/76/17 
f 56/76/17 59/75/17 13/21/17 
f 8/70/17 7/77/17 60/77/17 
f 60/77/17 61/70/17 8/70/17 
f 7/78/17 62/79/17 63/80/17 
f 63/80/17 60/81/17 7/78/17 
f 62/79/19 57/72/19 64/82/19 
f 64/82/19 63/80/19 62/79/19 
f 57/72/17 8/71/17 61/83/17 
f 61/83/19 64/82/19 57/72/19 
f 7/77/17 6/84/17 65/84/17 
f 65/84/19 66/77/19 7/77/19 
f 6/84/19 10/85/19 67/85/19 
f 67/85/19 65/84/19 6/84/19 
f 10/18/19 62/79/19 68/86/19 
f 68/86/19 67/87/19 10/18/19 
f 62/79/17 7/78/17 66/88/17 
f 66/88/19 68/86/19 62/79/19 
f 6/84/17 5/89/17 69/89/17 
f 69/89/19 70/84/19 6/84/19 
f 5/90/17 11/19/17 71/91/17 
f 71/91/19 69/92/19 5/90/19 
f 11/19/17 10/18/17 72/93/17 
f 72/93/17 71/91/17 11/19/17 
f 10/85/19 6/84/19 70/84/19 
f 70/84/19 72/85/19 10/85/19 
f 5/89/17 4/94/17 73/94/17 
f 73/94/17 74/89/17 5/89/17 
f 4/94/17 75/95/17 76/95/17 
f 76/95/19 73/94/19 4/94/19 
f 75/96/19 11/19/19 77/97/19 
f 77/97/17 76/98/17 75/96/17 
f 11/19/17 5/90/17 74/99/17 
f 74/99/17 77/97/17 11/19/17 
f 4/100/17 2/55/17 78/55/17 
f 78/55/17 79/100/17 4/100/17 
f 2/62/17 49/60/17 80/101/17 
f 80/101/17 78/102/17 2/62/17 
f 49/60/19 75/96/19 81/103/19 
f 81/103/19 80/101/19 49/60/19 
f 75/96/17 4/104/17 79/105/17 
f 79/105/19 81/103/19 75/96/19 
f 47/55/20 46/56/20 82/56/20 
f 82/56/20 83/55/20 47/55/20 
f 46/106/21 48/107/21 84/108/21 
f 84/108/21 82/109/21 46/106/21 
f 48/110/22 50/111/22 85/112/22 
f 85/112/22 84/113/22 48/110/22 
f 50/114/23 47/115/23 83/116/23 
f 83/116/23 85/117/23 50/114/23 
f 52/56/24 51/64/24 86/64/24 
f 86/64/24 87/56/24 52/56/24 
f 51/118/25 53/119/25 88/120/25 
f 88/120/25 86/121/25 51/118/25 
f 53/122/26 54/123/26 89/124/26 
f 89/124/26 88/125/26 53/122/26 
f 54/126/27 52/127/27 87/128/27 
f 87/128/27 89/129/27 54/126/27 
f 56/64/28 55/70/28 90/70/28 
f 90/70/28 91/64/28 56/64/28 
f 55/130/29 58/131/29 92/132/29 
f 92/132/29 90/133/29 55/130/29 
f 58/134/30 59/135/30 93/136/30 
f 93/136/30 92/137/30 58/134/30 
f 59/138/31 56/139/31 91/140/31 
f 91/140/31 93/141/31 59/138/31 
f 61/70/32 60/77/32 94/77/32 
f 94/77/32 95/70/32 61/70/32 
f 60/142/23 63/143/23 96/144/23 
f 96/144/23 94/145/23 60/142/23 
f 63/146/33 64/147/33 97/148/33 
f 97/148/33 96/149/33 63/146/33 
f 64/150/34 61/151/34 95/152/34 
f 95/152/34 97/153/34 64/150/34 
f 66/77/35 65/84/35 98/84/35 
f 98/84/35 99/77/35 66/77/35 
f 65/84/36 67/85/36 100/85/36 
f 100/85/27 98/84/27 65/84/27 
f 67/154/37 68/155/37 101/156/37 
f 101/156/37 100/157/37 67/154/37 
f 68/158/38 66/159/38 99/160/38 
f 99/160/38 101/161/38 68/158/38 
f 70/84/39 69/89/39 102/89/39 
f 102/89/39 103/84/39 70/84/39 
f 69/162/31 71/163/31 104/164/31 
f 104/164/31 102/165/31 69/162/31 
f 71/166/40 72/167/40 105/168/40 
f 105/168/40 104/169/40 71/166/40 
f 72/85/41 70/84/41 103/84/41 
f 103/84/41 105/85/41 72/85/41 
f 74/89/42 73/94/42 106/94/42 
f 106/94/42 107/89/42 74/89/42 
f 73/94/34 76/95/34 108/95/34 
f 108/95/34 106/94/34 73/94/34 
f 76/170/43 77/171/43 109/172/43 
f 109/172/43 108/173/43 76/170/43 
f 77/171/25 74/174/25 107/175/25 
f 107/175/25 109/172/25 77/171/25 
f 79/100/44 78/55/44 110/55/44 
f 110/55/44 111/100/44 79/100/44 
f 78/176/38 80/177/38 112/178/38 
f 112/178/38 110/179/38 78/176/38 
f 80/177/45 81/180/45 113/181/45 
f 113/181/45 112/178/45 80/177/45 
f 81/182/29 79/183/29 111/184/29 
f 111/184/29 113/185/29 81/182/29 
f 83/55/46 82/56/46 15/56/46 
f 15/56/46 14/55/46 83/55/46 
f 82/109/47 84/108/47 16/186/47 
f 16/186/48 15/187/48 82/109/48 
f 84/113/49 85/112/49 17/188/49 
f 17/188/49 16/189/49 84/113/49 
f 85/117/50 83/116/50 14/190/50 
f 14/190/50 17/191/50 85/117/50 
f 87/56/51 86/64/51 19/64/51 
f 19/64/51 18/56/51 87/56/51 
f 86/192/52 88/193/52 20/194/52 
f 20/194/52 19/195/52 86/192/52 
f 88/125/53 89/124/53 21/196/53 
f 21/196/53 20/197/53 88/125/53 
f 89/129/54 87/128/54 18/198/54 
f 18/198/54 21/199/54 89/129/54 
f 91/64/55 90/70/55 23/70/55 
f 23/70/55 22/64/55 91/64/55 
f 90/133/56 92/132/56 24/200/56 
f 24/200/56 23/201/56 90/133/56 
f 92/137/57 93/136/57 25/202/57 
f 25/202/57 24/203/57 92/137/57 
f 93/141/58 91/140/58 22/204/58 
f 22/204/58 25/205/58 93/141/58 
f 95/70/59 94/77/59 27/77/59 
f 27/77/59 26/70/59 95/70/59 
f 94/145/50 96/144/50 28/206/50 
f 28/206/50 27/207/50 94/145/50 
f 96/149/60 97/148/60 29/208/60 
f 29/208/60 28/209/60 96/149/60 
f 97/153/61 95/152/61 26/210/61 
f 26/210/61 29/211/61 97/153/61 
f 99/77/49 98/84/49 31/84/49 
f 31/84/49 30/77/49 99/77/49 
f 98/84/54 100/85/54 32/85/54 
f 32/85/62 31/84/62 98/84/62 
f 100/157/46 101/156/46 33/212/46 
f 33/212/46 32/213/46 100/157/46 
f 101/214/63 99/215/63 30/216/63 
f 30/216/63 33/217/63 101/214/63 
f 103/84/53 102/89/53 35/89/53 
f 35/89/53 34/84/53 103/84/53 
f 102/165/58 104/164/58 36/218/58 
f 36/218/58 35/219/58 102/165/58 
f 104/169/51 105/168/51 37/220/51 
f 37/220/51 36/221/51 104/169/51 
f 105/85/48 103/84/48 34/84/48 
f 34/84/48 37/85/48 105/85/48 
f 107/89/57 106/94/57 39/94/57 
f 39/94/57 38/89/57 107/89/57 
f 106/94/61 108/95/61 40/95/61 
f 40/95/61 39/94/61 106/94/61 
f 108/173/55 109/172/55 41/222/55 
f 41/222/55 40/223/55 108/173/55 
f 109/224/52 107/225/52 38/226/52 
f 38/226/52 41/227/52 109/224/52 
f 111/100/60 110/55/60 43/55/60 
f 43/55/60 42/100/60 111/100/60 
f 110/228/63 112/229/63 44/230/63 
f 44/230/63 43/231/63 110/228/63 
f 112/178/59 113/181/59 45/232/59 
f 45/232/59 44/233/59 112/178/59 
f 113/185/56 111/184/56 42/234/56 
f 42/234/56 45/235/56 113/185/56 
f 75/96/17 49/60/17 12/20/17 
f 12/20/17 11/19/17 75/96/17 
f 57/72/17 62/79/17 10/18/17 
f 10/18/17 13/21/17 57/72/17 
# 236 faces

