# 3ds Max Wavefront OBJ Exporter v0.97b - (c)2007 guruware
# File Created: 23.04.2014 18:29:50

mtllib Space Mine.mtl

#
# object Pyramid001
#

v  0.0000 -0.1401 2.7169
v  -1.7964 -1.7716 0.1200
v  1.7964 -1.7716 0.1200
v  0.8715 0.0005 2.2303
v  2.0100 -1.0335 0.5844
v  2.0100 1.0345 0.5844
v  0.0000 0.0005 3.0279
v  2.0945 1.9028 0.0000
v  -2.0945 1.9028 0.0000
v  -0.8715 0.0005 2.2303
v  -2.0100 1.0345 0.5844
v  -2.0100 -1.0335 0.5844
v  -0.9651 -0.7725 0.4796
v  0.0000 0.0005 0.4796
v  0.9651 -0.7725 0.4796
v  0.9651 0.7735 0.4796
v  -0.9651 0.7735 0.4796
v  1.9452 -1.7526 -0.3064
v  -1.9452 -1.7526 -0.3064
v  -1.1144 -0.9218 -0.0804
v  1.1144 -0.9218 -0.0804
v  -1.9452 1.7536 -0.3064
v  -1.1144 0.9228 -0.0804
v  1.9452 1.7536 -0.3064
v  1.1144 0.9228 -0.0804
v  2.0945 -1.9018 -0.0000
v  -2.0945 -1.9018 -0.0000
v  -1.9452 -1.7526 0.1268
v  1.9452 -1.7526 0.1268
v  -1.9452 1.7536 0.1268
v  1.9452 1.7536 0.1268
v  1.1144 -0.9218 0.3528
v  -1.1144 -0.9218 0.3528
v  1.1144 0.9228 0.3528
v  -1.1144 0.9228 0.3528
v  1.7937 -1.0335 0.4348
v  0.6552 0.0005 2.0807
v  1.7937 1.0345 0.4348
v  -0.6552 0.0005 2.0807
v  -1.7937 -1.0335 0.4348
v  -1.7937 1.0345 0.4348
v  -1.7964 -1.8109 0.1447
v  0.0000 -0.1794 2.7416
v  1.7964 -1.8109 0.1447
# 44 vertices

vn 0.0000 -0.8468 0.5320
vn 0.8224 -0.0000 0.5689
vn 0.0000 0.8468 0.5320
vn -0.8224 -0.0000 0.5689
vn 0.0000 0.0000 -1.0000
vn 0.0000 0.2625 -0.9649
vn 0.2625 0.0000 -0.9649
vn 0.0000 -0.2625 -0.9649
vn -0.2625 0.0000 -0.9649
vn 0.0000 0.6473 -0.7622
vn 0.6473 0.0000 -0.7622
vn 0.0000 -0.6473 -0.7622
vn -0.6473 0.0000 -0.7622
vn 0.0000 -1.0000 -0.0000
vn -1.0000 0.0000 -0.0000
vn 0.0000 1.0000 0.0000
vn 1.0000 0.0000 -0.0000
vn -0.2611 -0.8884 0.3775
vn 0.5689 0.0000 -0.8224
vn -0.2611 0.8884 0.3775
vn 0.2611 -0.8884 0.3775
vn 0.2611 0.8884 0.3775
vn -0.5689 0.0000 -0.8224
vn -0.0000 -0.8468 0.5320
vn 0.8629 -0.2689 -0.4280
vn 0.0000 0.5320 0.8468
vn -0.8629 -0.2689 -0.4280
# 27 vertex normals

vt 0.5000 1.0000 0.0000
vt 0.0000 0.0000 0.0000
vt 1.0000 0.0000 0.0000
vt -0.0505 0.0000 0.0000
vt 0.9495 0.0000 0.0000
vt 0.0000 1.0000 0.0000
vt 0.5000 0.5000 0.0000
vt 1.0000 1.0000 0.0000
# 8 texture coords

g Pyramid001
usemtl wire_196088225
f 1/1/1 2/2/1 3/3/1 
f 4/1/2 5/4/2 6/5/2 
f 7/1/3 8/2/3 9/3/3 
f 10/1/4 11/4/4 12/5/4 
f 13/6/5 14/7/5 15/8/5 
f 15/8/5 14/7/5 16/3/5 
f 16/3/5 14/7/5 17/2/5 
f 17/2/5 14/7/5 13/6/5 
f 18/3/6 19/2/6 20/6/6 
f 20/6/6 21/8/6 18/3/6 
f 19/5/7 22/4/7 23/2/7 
f 23/2/7 20/6/7 19/5/7 
f 22/3/8 24/2/8 25/3/8 
f 25/3/8 23/2/8 22/3/8 
f 24/5/9 18/4/9 21/8/9 
f 21/8/9 25/3/9 24/5/9 
f 26/3/10 27/2/10 28/2/10 
f 28/2/10 29/3/10 26/3/10 
f 27/5/11 9/4/11 30/4/11 
f 30/4/11 28/5/11 27/5/11 
f 9/3/12 8/2/12 31/2/12 
f 31/2/12 30/3/12 9/3/12 
f 8/5/13 26/4/13 29/4/13 
f 29/4/13 31/5/13 8/5/13 
f 13/6/10 15/8/10 32/8/10 
f 32/8/10 33/6/10 13/6/10 
f 15/8/13 16/3/13 34/3/13 
f 34/3/13 32/8/13 15/8/13 
f 16/3/12 17/2/12 35/2/12 
f 35/2/12 34/3/12 16/3/12 
f 17/2/11 13/6/11 33/6/11 
f 33/6/11 35/2/11 17/2/11 
f 29/3/14 28/2/14 19/2/14 
f 19/2/14 18/3/14 29/3/14 
f 28/5/15 30/4/15 22/4/15 
f 22/4/15 19/5/15 28/5/15 
f 30/3/16 31/2/16 24/2/16 
f 24/2/16 22/3/16 30/3/16 
f 31/5/17 29/4/17 18/4/17 
f 18/4/17 24/5/17 31/5/17 
f 33/6/16 32/8/16 21/8/16 
f 21/8/16 20/6/16 33/6/16 
f 32/8/15 34/3/15 25/3/15 
f 25/3/15 21/8/15 32/8/15 
f 34/3/14 35/2/14 23/2/14 
f 23/2/14 25/3/14 34/3/14 
f 35/2/17 33/6/17 20/6/17 
f 20/6/17 23/2/17 35/2/17 
f 7/1/2 26/3/2 36/4/2 
f 36/4/2 37/1/2 7/1/2 
f 26/4/2 8/5/2 38/5/2 
f 38/5/2 36/4/2 26/4/2 
f 8/2/2 7/1/2 37/1/2 
f 37/1/2 38/5/2 8/2/2 
f 27/2/4 7/1/4 39/1/4 
f 39/1/4 40/5/4 27/2/4 
f 7/1/4 9/3/4 41/4/4 
f 41/4/4 39/1/4 7/1/4 
f 9/4/4 27/5/4 40/5/4 
f 40/5/4 41/4/4 9/4/4 
f 37/1/18 36/4/18 5/4/18 
f 5/4/18 4/1/18 37/1/18 
f 36/4/19 38/5/19 6/5/19 
f 6/5/19 5/4/19 36/4/19 
f 38/5/20 37/1/20 4/1/20 
f 4/1/20 6/5/20 38/5/20 
f 40/5/21 39/1/21 10/1/21 
f 10/1/21 12/5/21 40/5/21 
f 39/1/22 41/4/22 11/4/22 
f 11/4/22 10/1/22 39/1/22 
f 41/4/23 40/5/23 12/5/23 
f 12/5/23 11/4/23 41/4/23 
f 7/1/24 27/2/24 42/2/24 
f 42/2/1 43/1/1 7/1/1 
f 27/2/1 26/3/1 44/3/1 
f 44/3/1 42/2/1 27/2/1 
f 26/3/1 7/1/1 43/1/1 
f 43/1/1 44/3/1 26/3/1 
f 43/1/25 42/2/25 2/2/25 
f 2/2/25 1/1/25 43/1/25 
f 42/2/26 44/3/26 3/3/26 
f 3/3/26 2/2/26 42/2/26 
f 44/3/27 43/1/27 1/1/27 
f 1/1/27 3/3/27 44/3/27 
# 84 faces

