# 3ds Max Wavefront OBJ Exporter v0.97b - (c)2007 guruware
# File Created: 30.04.2014 13:11:12

mtllib UFO.mtl

#
# object Cylinder001
#

v  10.0000 0.0000 -0.0000
v  9.3969 0.0000 -3.4202
v  7.6604 0.0000 -6.4279
v  5.0000 0.0000 -8.6603
v  1.7365 0.0000 -9.8481
v  -1.7365 0.0000 -9.8481
v  -5.0000 0.0000 -8.6603
v  -7.6604 0.0000 -6.4279
v  -9.3969 0.0000 -3.4202
v  -10.0000 0.0000 -0.0000
v  -9.3969 0.0000 3.4202
v  -7.6604 0.0000 6.4279
v  -5.0000 0.0000 8.6603
v  -1.7365 0.0000 9.8481
v  1.7365 0.0000 9.8481
v  5.0000 0.0000 8.6603
v  7.6604 0.0000 6.4279
v  9.3969 0.0000 3.4202
v  9.3969 4.5000 -3.4202
v  7.6604 4.5000 -6.4279
v  5.0000 4.5000 -8.6603
v  9.3969 4.5000 3.4202
v  1.7365 4.5000 -9.8481
v  -1.7365 4.5000 -9.8481
v  -7.6604 4.5000 -6.4279
v  -5.0000 4.5000 -8.6603
v  -9.3969 4.5000 -3.4202
v  -10.0000 4.5000 -0.0000
v  -7.6604 4.5000 6.4279
v  -9.3969 4.5000 3.4202
v  -5.0000 4.5000 8.6603
v  -1.7365 4.5000 9.8481
v  5.0000 4.5000 8.6603
v  1.7365 4.5000 9.8481
v  7.6604 4.5000 6.4279
v  10.0000 4.5000 0.0000
v  14.1679 1.0000 -5.1567
v  15.0771 1.0000 0.0000
v  11.5498 1.0000 -9.6914
v  7.5386 1.0000 -13.0572
v  2.6181 1.0000 -14.8481
v  -2.6181 1.0000 -14.8481
v  -7.5386 1.0000 -13.0572
v  -11.5498 1.0000 -9.6914
v  -14.1679 1.0000 -5.1567
v  -15.0771 1.0000 -0.0000
v  -14.1679 1.0000 5.1567
v  -11.5498 1.0000 9.6914
v  -7.5386 1.0000 13.0572
v  -2.6181 1.0000 14.8481
v  2.6181 1.0000 14.8481
v  7.5386 1.0000 13.0572
v  11.5497 1.0000 9.6914
v  14.1679 1.0000 5.1567
v  16.5533 2.0000 -6.0249
v  17.6157 2.0000 0.0000
v  13.4944 2.0000 -11.3232
v  8.8078 2.0000 -15.2556
v  3.0589 2.0000 -17.3481
v  -3.0589 2.0000 -17.3481
v  -8.8079 2.0000 -15.2556
v  -13.4944 2.0000 -11.3232
v  -16.5533 2.0000 -6.0249
v  -17.6157 2.0000 -0.0000
v  -16.5533 2.0000 6.0249
v  -13.4944 2.0000 11.3232
v  -8.8079 2.0000 15.2556
v  -3.0589 2.0000 17.3481
v  3.0589 2.0000 17.3481
v  8.8078 2.0000 15.2556
v  13.4944 2.0000 11.3232
v  16.5533 2.0000 6.0249
v  16.5533 2.5000 -6.0249
v  17.6157 2.5000 0.0000
v  13.4944 2.5000 -11.3232
v  8.8078 2.5000 -15.2556
v  3.0589 2.5000 -17.3481
v  -3.0589 2.5000 -17.3481
v  -8.8079 2.5000 -15.2556
v  -13.4944 2.5000 -11.3232
v  -16.5533 2.5000 -6.0249
v  -17.6157 2.5000 -0.0000
v  -16.5533 2.5000 6.0249
v  -13.4944 2.5000 11.3232
v  -8.8079 2.5000 15.2556
v  -3.0589 2.5000 17.3481
v  3.0589 2.5000 17.3481
v  8.8078 2.5000 15.2556
v  13.4944 2.5000 11.3232
v  16.5533 2.5000 6.0249
v  14.1679 3.5000 -5.1567
v  15.0771 3.5000 0.0000
v  11.5498 3.5000 -9.6914
v  7.5386 3.5000 -13.0572
v  2.6181 3.5000 -14.8481
v  -2.6181 3.5000 -14.8481
v  -7.5386 3.5000 -13.0572
v  -11.5498 3.5000 -9.6914
v  -14.1679 3.5000 -5.1567
v  -15.0771 3.5000 -0.0000
v  -14.1679 3.5000 5.1567
v  -11.5498 3.5000 9.6914
v  -7.5386 3.5000 13.0572
v  -2.6181 3.5000 14.8481
v  2.6181 3.5000 14.8481
v  7.5386 3.5000 13.0572
v  11.5497 3.5000 9.6914
v  14.1679 3.5000 5.1567
# 108 vertices

vn 1.0000 0.0000 -0.0000
vn 0.0000 -1.0000 -0.0000
vn 0.0000 1.0000 -0.0000
vn 0.1931 -0.9806 -0.0341
vn 0.1698 -0.9806 -0.0981
vn 0.1261 -0.9806 -0.1502
vn 0.0671 -0.9806 -0.1843
vn 0.0000 -0.9806 -0.1961
vn -0.0671 -0.9806 -0.1843
vn -0.1261 -0.9806 -0.1502
vn -0.1698 -0.9806 -0.0981
vn -0.1931 -0.9806 -0.0341
vn -0.1931 -0.9806 0.0341
vn -0.1698 -0.9806 0.0981
vn -0.1261 -0.9806 0.1502
vn -0.0671 -0.9806 0.1843
vn -0.0000 -0.9806 0.1961
vn 0.0671 -0.9806 0.1843
vn 0.1261 -0.9806 0.1502
vn 0.1698 -0.9806 0.0981
vn 0.1931 -0.9806 0.0341
vn 0.3657 -0.9285 -0.0645
vn 0.3216 -0.9285 -0.1857
vn 0.2387 -0.9285 -0.2845
vn 0.1270 -0.9285 -0.3490
vn 0.0000 -0.9285 -0.3714
vn -0.1270 -0.9285 -0.3490
vn -0.2387 -0.9285 -0.2845
vn -0.3216 -0.9285 -0.1857
vn -0.3657 -0.9285 -0.0645
vn -0.3657 -0.9285 0.0645
vn -0.3216 -0.9285 0.1857
vn -0.2387 -0.9285 0.2845
vn -0.1270 -0.9285 0.3490
vn -0.0000 -0.9285 0.3714
vn 0.1270 -0.9285 0.3490
vn 0.2387 -0.9285 0.2845
vn 0.3216 -0.9285 0.1857
vn 0.3657 -0.9285 0.0645
vn 0.9848 0.0000 -0.1736
vn 0.8660 0.0000 -0.5000
vn 0.6428 0.0000 -0.7660
vn 0.3420 0.0000 -0.9397
vn 0.0000 0.0000 -1.0000
vn -0.3420 0.0000 -0.9397
vn -0.6428 0.0000 -0.7660
vn -0.8660 0.0000 -0.5000
vn -0.9848 0.0000 -0.1736
vn -0.9848 0.0000 0.1736
vn -0.8660 0.0000 0.5000
vn -0.6428 0.0000 0.7660
vn -0.3420 0.0000 0.9397
vn -0.0000 0.0000 1.0000
vn 0.3420 0.0000 0.9397
vn 0.6428 0.0000 0.7660
vn 0.8660 0.0000 0.5000
vn 0.9848 0.0000 0.1736
vn 0.3657 0.9285 -0.0645
vn 0.3216 0.9285 -0.1857
vn 0.2387 0.9285 -0.2845
vn 0.1270 0.9285 -0.3490
vn 0.0000 0.9285 -0.3714
vn -0.1270 0.9285 -0.3490
vn -0.2387 0.9285 -0.2845
vn -0.3216 0.9285 -0.1857
vn -0.3657 0.9285 -0.0645
vn -0.3657 0.9285 0.0645
vn -0.3216 0.9285 0.1857
vn -0.2387 0.9285 0.2845
vn -0.1270 0.9285 0.3490
vn -0.0000 0.9285 0.3714
vn 0.1270 0.9285 0.3490
vn 0.2387 0.9285 0.2845
vn 0.3216 0.9285 0.1857
vn 0.3657 0.9285 0.0645
vn 0.1931 0.9806 -0.0341
vn 0.1698 0.9806 -0.0981
vn 0.1261 0.9806 -0.1502
vn 0.0671 0.9806 -0.1843
vn 0.0000 0.9806 -0.1961
vn -0.0671 0.9806 -0.1843
vn -0.1261 0.9806 -0.1502
vn -0.1698 0.9806 -0.0981
vn -0.1931 0.9806 -0.0341
vn -0.1931 0.9806 0.0341
vn -0.1698 0.9806 0.0981
vn -0.1261 0.9806 0.1502
vn -0.0671 0.9806 0.1843
vn -0.0000 0.9806 0.1961
vn 0.0671 0.9806 0.1843
vn 0.1261 0.9806 0.1502
vn 0.1698 0.9806 0.0981
vn 0.1931 0.9806 0.0341
# 93 vertex normals

vt 0.7500 0.0000 1.0000
vt 0.8056 0.0000 1.0000
vt 0.8611 0.0000 1.0000
vt 0.9167 0.0000 1.0000
vt 0.9722 0.0000 1.0000
vt 1.0278 0.0000 1.0000
vt 0.0278 0.0000 1.0000
vt 0.0833 0.0000 1.0000
vt 0.1389 0.0000 1.0000
vt 0.1944 0.0000 1.0000
vt 0.2500 0.0000 1.0000
vt 0.3056 0.0000 1.0000
vt 0.3611 0.0000 1.0000
vt 0.4167 0.0000 1.0000
vt 0.4722 0.0000 1.0000
vt 0.5278 0.0000 1.0000
vt 0.5833 0.0000 1.0000
vt 0.6389 0.0000 1.0000
vt 0.6944 0.0000 1.0000
vt 0.8214 0.8830 -0.2500
vt 0.9330 0.7500 -0.2500
vt 0.9924 0.5868 -0.2500
vt 0.5000 1.0000 -0.2500
vt 0.9924 0.4132 -0.2500
vt 0.9330 0.2500 -0.2500
vt 0.6710 0.0302 -0.2500
vt 0.8214 0.1170 -0.2500
vt 0.5000 0.0000 -0.2500
vt 0.3290 0.0302 -0.2500
vt 0.0670 0.2500 -0.2500
vt 0.1786 0.1170 -0.2500
vt 0.0076 0.4132 -0.2500
vt 0.0076 0.5868 -0.2500
vt 0.1786 0.8830 -0.2500
vt 0.0670 0.7500 -0.2500
vt 0.3290 0.9698 -0.2500
vt 0.6710 0.9698 -0.2500
# 37 texture coords

g Cylinder001
usemtl wire_228153184
s 8
f 1/1/1 2/2/1 2/2/1 1/1/1 
f 2/2/1 3/3/1 3/3/1 2/2/1 
f 3/3/1 4/4/1 4/4/1 3/3/1 
f 4/4/1 5/5/1 5/5/1 4/4/1 
f 5/5/1 6/6/1 6/6/1 5/5/1 
f 6/7/1 7/8/1 7/8/1 6/7/1 
f 7/8/1 8/9/1 8/9/1 7/8/1 
f 8/9/1 9/10/1 9/10/1 8/9/1 
f 9/10/1 10/11/1 10/11/1 9/10/1 
f 10/11/1 11/12/1 11/12/1 10/11/1 
f 11/12/1 12/13/1 12/13/1 11/12/1 
f 12/13/1 13/14/1 13/14/1 12/13/1 
f 13/14/1 14/15/1 14/15/1 13/14/1 
f 14/15/1 15/16/1 15/16/1 14/15/1 
f 15/16/1 16/17/1 16/17/1 15/16/1 
f 16/17/1 17/18/1 17/18/1 16/17/1 
f 17/18/1 18/19/1 18/19/1 17/18/1 
f 18/19/1 1/1/1 1/1/1 18/19/1 
f 1/1/1 2/2/1 2/2/1 1/1/1 
f 2/2/1 3/3/1 3/3/1 2/2/1 
f 3/3/1 4/4/1 4/4/1 3/3/1 
f 4/4/1 5/5/1 5/5/1 4/4/1 
f 5/5/1 6/6/1 6/6/1 5/5/1 
f 6/7/1 7/8/1 7/8/1 6/7/1 
f 7/8/1 8/9/1 8/9/1 7/8/1 
f 8/9/1 9/10/1 9/10/1 8/9/1 
f 9/10/1 10/11/1 10/11/1 9/10/1 
f 10/11/1 11/12/1 11/12/1 10/11/1 
f 11/12/1 12/13/1 12/13/1 11/12/1 
f 12/13/1 13/14/1 13/14/1 12/13/1 
f 13/14/1 14/15/1 14/15/1 13/14/1 
f 14/15/1 15/16/1 15/16/1 14/15/1 
f 15/16/1 16/17/1 16/17/1 15/16/1 
f 16/17/1 17/18/1 17/18/1 16/17/1 
f 17/18/1 18/19/1 18/19/1 17/18/1 
f 18/19/1 1/1/1 1/1/1 18/19/1 
f 1/1/1 2/2/1 2/2/1 1/1/1 
f 2/2/1 3/3/1 3/3/1 2/2/1 
f 3/3/1 4/4/1 4/4/1 3/3/1 
f 4/4/1 5/5/1 5/5/1 4/4/1 
f 5/5/1 6/6/1 6/6/1 5/5/1 
f 6/7/1 7/8/1 7/8/1 6/7/1 
f 7/8/1 8/9/1 8/9/1 7/8/1 
f 8/9/1 9/10/1 9/10/1 8/9/1 
f 9/10/1 10/11/1 10/11/1 9/10/1 
f 10/11/1 11/12/1 11/12/1 10/11/1 
f 11/12/1 12/13/1 12/13/1 11/12/1 
f 12/13/1 13/14/1 13/14/1 12/13/1 
f 13/14/1 14/15/1 14/15/1 13/14/1 
f 14/15/1 15/16/1 15/16/1 14/15/1 
f 15/16/1 16/17/1 16/17/1 15/16/1 
f 16/17/1 17/18/1 17/18/1 16/17/1 
f 17/18/1 18/19/1 18/19/1 17/18/1 
f 18/19/1 1/1/1 1/1/1 18/19/1 
f 1/1/1 2/2/1 2/2/1 1/1/1 
f 2/2/1 3/3/1 3/3/1 2/2/1 
f 3/3/1 4/4/1 4/4/1 3/3/1 
f 4/4/1 5/5/1 5/5/1 4/4/1 
f 5/5/1 6/6/1 6/6/1 5/5/1 
f 6/7/1 7/8/1 7/8/1 6/7/1 
f 7/8/1 8/9/1 8/9/1 7/8/1 
f 8/9/1 9/10/1 9/10/1 8/9/1 
f 9/10/1 10/11/1 10/11/1 9/10/1 
f 10/11/1 11/12/1 11/12/1 10/11/1 
f 11/12/1 12/13/1 12/13/1 11/12/1 
f 12/13/1 13/14/1 13/14/1 12/13/1 
f 13/14/1 14/15/1 14/15/1 13/14/1 
f 14/15/1 15/16/1 15/16/1 14/15/1 
f 15/16/1 16/17/1 16/17/1 15/16/1 
f 16/17/1 17/18/1 17/18/1 16/17/1 
f 17/18/1 18/19/1 18/19/1 17/18/1 
f 18/19/1 1/1/1 1/1/1 18/19/1 
f 1/1/1 2/2/1 2/2/1 1/1/1 
f 2/2/1 3/3/1 3/3/1 2/2/1 
f 3/3/1 4/4/1 4/4/1 3/3/1 
f 4/4/1 5/5/1 5/5/1 4/4/1 
f 5/5/1 6/6/1 6/6/1 5/5/1 
f 6/7/1 7/8/1 7/8/1 6/7/1 
f 7/8/1 8/9/1 8/9/1 7/8/1 
f 8/9/1 9/10/1 9/10/1 8/9/1 
f 9/10/1 10/11/1 10/11/1 9/10/1 
f 10/11/1 11/12/1 11/12/1 10/11/1 
f 11/12/1 12/13/1 12/13/1 11/12/1 
f 12/13/1 13/14/1 13/14/1 12/13/1 
f 13/14/1 14/15/1 14/15/1 13/14/1 
f 14/15/1 15/16/1 15/16/1 14/15/1 
f 15/16/1 16/17/1 16/17/1 15/16/1 
f 16/17/1 17/18/1 17/18/1 16/17/1 
f 17/18/1 18/19/1 18/19/1 17/18/1 
f 18/19/1 1/1/1 1/1/1 18/19/1 
s 1
f 17/20/2 16/21/2 15/22/2 1/23/2 
f 15/22/2 14/24/2 13/25/2 11/26/2 
f 13/25/2 12/27/2 11/26/2 
f 11/26/2 10/28/2 9/29/2 7/30/2 
f 9/29/2 8/31/2 7/30/2 
f 7/30/2 6/32/2 5/33/2 3/34/2 
f 5/33/2 4/35/2 3/34/2 
f 11/26/2 7/30/2 3/34/2 15/22/2 
f 3/34/2 2/36/2 1/23/2 15/22/2 
f 18/37/2 17/20/2 1/23/2 
f 19/36/3 20/34/3 21/35/3 22/37/3 
f 21/35/3 23/33/3 24/32/3 25/31/3 
f 24/32/3 26/30/3 25/31/3 
f 25/31/3 27/29/3 28/28/3 29/27/3 
f 28/28/3 30/26/3 29/27/3 
f 29/27/3 31/25/3 32/24/3 33/21/3 
f 32/24/3 34/22/3 33/21/3 
f 25/31/3 29/27/3 33/21/3 21/35/3 
f 33/21/3 35/20/3 22/37/3 21/35/3 
f 36/23/3 19/36/3 22/37/3 
s off
f 1/1/4 2/2/4 37/36/4 38/23/4 
f 2/2/5 3/3/5 39/34/5 37/36/5 
f 3/3/6 4/4/6 40/35/6 39/34/6 
f 4/4/7 5/5/7 41/33/7 40/35/7 
f 5/5/8 6/6/8 42/32/8 41/33/8 
f 6/7/9 7/8/9 43/30/9 42/32/9 
f 7/8/10 8/9/10 44/31/10 43/30/10 
f 8/9/11 9/10/11 45/29/11 44/31/11 
f 9/10/12 10/11/12 46/28/12 45/29/12 
f 10/11/13 11/12/13 47/26/13 46/28/13 
f 11/12/14 12/13/14 48/27/14 47/26/14 
f 12/13/15 13/14/15 49/25/15 48/27/15 
f 13/14/16 14/15/16 50/24/16 49/25/16 
f 14/15/17 15/16/17 51/22/17 50/24/17 
f 15/16/18 16/17/18 52/21/18 51/22/18 
f 16/17/19 17/18/19 53/20/19 52/21/19 
f 17/18/20 18/19/20 54/37/20 53/20/20 
f 18/19/21 1/1/21 38/23/21 54/37/21 
f 38/23/22 37/36/22 55/36/22 56/23/22 
f 37/36/23 39/34/23 57/34/23 55/36/23 
f 39/34/24 40/35/24 58/35/24 57/34/24 
f 40/35/25 41/33/25 59/33/25 58/35/25 
f 41/33/26 42/32/26 60/32/26 59/33/26 
f 42/32/27 43/30/27 61/30/27 60/32/27 
f 43/30/28 44/31/28 62/31/28 61/30/28 
f 44/31/29 45/29/29 63/29/29 62/31/29 
f 45/29/30 46/28/30 64/28/30 63/29/30 
f 46/28/31 47/26/31 65/26/31 64/28/31 
f 47/26/32 48/27/32 66/27/32 65/26/32 
f 48/27/33 49/25/33 67/25/33 66/27/33 
f 49/25/34 50/24/34 68/24/34 67/25/34 
f 50/24/35 51/22/35 69/22/35 68/24/35 
f 51/22/36 52/21/36 70/21/36 69/22/36 
f 52/21/37 53/20/37 71/20/37 70/21/37 
f 53/20/38 54/37/38 72/37/38 71/20/38 
f 54/37/39 38/23/39 56/23/39 72/37/39 
f 56/23/40 55/36/40 73/36/40 74/23/40 
f 55/36/41 57/34/41 75/34/41 73/36/41 
f 57/34/42 58/35/42 76/35/42 75/34/42 
f 58/35/43 59/33/43 77/33/43 76/35/43 
f 59/33/44 60/32/44 78/32/44 77/33/44 
f 60/32/45 61/30/45 79/30/45 78/32/45 
f 61/30/46 62/31/46 80/31/46 79/30/46 
f 62/31/47 63/29/47 81/29/47 80/31/47 
f 63/29/48 64/28/48 82/28/48 81/29/48 
f 64/28/49 65/26/49 83/26/49 82/28/49 
f 65/26/50 66/27/50 84/27/50 83/26/50 
f 66/27/51 67/25/51 85/25/51 84/27/51 
f 67/25/52 68/24/52 86/24/52 85/25/52 
f 68/24/53 69/22/53 87/22/53 86/24/53 
f 69/22/54 70/21/54 88/21/54 87/22/54 
f 70/21/55 71/20/55 89/20/55 88/21/55 
f 71/20/56 72/37/56 90/37/56 89/20/56 
f 72/37/57 56/23/57 74/23/57 90/37/57 
f 74/23/58 73/36/58 91/36/58 92/23/58 
f 73/36/59 75/34/59 93/34/59 91/36/59 
f 75/34/60 76/35/60 94/35/60 93/34/60 
f 76/35/61 77/33/61 95/33/61 94/35/61 
f 77/33/62 78/32/62 96/32/62 95/33/62 
f 78/32/63 79/30/63 97/30/63 96/32/63 
f 79/30/64 80/31/64 98/31/64 97/30/64 
f 80/31/65 81/29/65 99/29/65 98/31/65 
f 81/29/66 82/28/66 100/28/66 99/29/66 
f 82/28/67 83/26/67 101/26/67 100/28/67 
f 83/26/68 84/27/68 102/27/68 101/26/68 
f 84/27/69 85/25/69 103/25/69 102/27/69 
f 85/25/70 86/24/70 104/24/70 103/25/70 
f 86/24/71 87/22/71 105/22/71 104/24/71 
f 87/22/72 88/21/72 106/21/72 105/22/72 
f 88/21/73 89/20/73 107/20/73 106/21/73 
f 89/20/74 90/37/74 108/37/74 107/20/74 
f 90/37/75 74/23/75 92/23/75 108/37/75 
f 92/23/76 91/36/76 19/36/76 36/23/76 
f 91/36/77 93/34/77 20/34/77 19/36/77 
f 93/34/78 94/35/78 21/35/78 20/34/78 
f 94/35/79 95/33/79 23/33/79 21/35/79 
f 95/33/80 96/32/80 24/32/80 23/33/80 
f 96/32/81 97/30/81 26/30/81 24/32/81 
f 97/30/82 98/31/82 25/31/82 26/30/82 
f 98/31/83 99/29/83 27/29/83 25/31/83 
f 99/29/84 100/28/84 28/28/84 27/29/84 
f 100/28/85 101/26/85 30/26/85 28/28/85 
f 101/26/86 102/27/86 29/27/86 30/26/86 
f 102/27/87 103/25/87 31/25/87 29/27/87 
f 103/25/88 104/24/88 32/24/88 31/25/88 
f 104/24/89 105/22/89 34/22/89 32/24/89 
f 105/22/90 106/21/90 33/21/90 34/22/90 
f 106/21/91 107/20/91 35/20/91 33/21/91 
f 107/20/92 108/37/92 22/37/92 35/20/92 
f 108/37/93 92/23/93 36/23/93 22/37/93 
# 192 polygons - 8 triangles

